<?xml version="1.0" standalone="no"?>
<!DOCTYPE svg PUBLIC "-//W3C//DTD SVG 20010904//EN"
 "http://www.w3.org/TR/2001/REC-SVG-20010904/DTD/svg10.dtd">
<svg version="1.0" xmlns="http://www.w3.org/2000/svg"
 width="98.000000pt" height="45.000000pt" viewBox="0 0 98.000000 45.000000"
 preserveAspectRatio="xMidYMid meet">

<g transform="translate(0.000000,45.000000) scale(0.100000,-0.100000)"
fill="#000000" stroke="none">
<path d="M161 426 c-61 -20 -118 -78 -138 -143 -14 -45 -15 -60 -4 -109 11
-46 22 -66 61 -104 93 -94 210 -90 324 12 78 69 105 70 174 6 68 -64 106 -81
177 -82 126 -1 218 90 218 214 0 124 -92 214 -218 214 -71 0 -107 -17 -177
-82 -67 -63 -99 -63 -166 0 -27 25 -63 53 -81 62 -45 24 -118 28 -170 12z"/>
</g>
</svg>
